<svg width="267" height="208" viewBox="0 0 267 208" fill="none" xmlns="http://www.w3.org/2000/svg">
<g clip-path="url(#clip0_114_19)">
<path d="M121.714 37.7218C110.984 2.24311 87.1942 -1.8372 74.614 0.557189C56.8346 0.557465 40.5205 17.7094 42.799 44.5933C50.2106 132.041 16.876 86.6898 2.87075 126.107C-8.66983 158.587 16.5981 199.812 42.799 203.248C63.76 205.996 70.2472 181.828 70.2472 171.392C70.2472 142.035 66.1898 111.116 97.6958 111.116C112.044 111.116 128.668 117.987 139.493 142.347C146.105 157.227 145.521 174.751 157.273 189.818C182.85 222.611 221.838 206.059 224.334 175.452C226.829 144.845 211.882 120.485 240.865 106.119C269.848 91.7524 270.119 76.5165 262.633 47.7838C255.527 20.5088 235.875 5.8663 214.976 7.42785C194.078 8.98941 195.013 33.9748 198.757 51.7764C202.632 70.2047 197.506 90.5031 179.415 97.0617C141.65 110.752 128.795 61.1353 121.714 37.7218Z" fill="#F9F9F9"/>
</g>
<defs>
<clipPath id="clip0_114_19">
<rect width="267" height="208" fill="white"/>
</clipPath>
</defs>
</svg>
